<svg width="112" height="28" viewBox="0 0 112 28" fill="none" xmlns="http://www.w3.org/2000/svg">
<path d="M40.3953 16.0105V16.1222C40.3953 17.1114 40.0603 17.8453 39.3902 18.3398C38.7202 18.8344 37.715 19.0737 36.3589 19.0737C35.5931 19.0737 34.9071 18.994 34.3168 18.8504C33.7265 18.7068 32.9926 18.3877 32.5778 18.1963V16.202C33.0724 16.4253 33.6148 16.6327 34.2051 16.7923C34.7954 16.9678 35.4655 17.0476 36.1675 17.0476C36.7897 17.0476 37.2364 16.9678 37.5236 16.8082C37.8108 16.6487 37.9384 16.4094 37.9384 16.0903V16.0265C37.9384 15.8191 37.8746 15.6436 37.7469 15.5C37.6193 15.3564 37.396 15.2447 37.0769 15.1331C36.7578 15.0214 36.3111 14.8937 35.7367 14.7661C34.939 14.5747 34.3009 14.3673 33.8382 14.112C33.3755 13.8567 33.0405 13.5536 32.849 13.1867C32.6416 12.8038 32.5459 12.373 32.5459 11.8465V11.7667C32.5459 10.8573 32.865 10.1873 33.5031 9.7246C34.1413 9.26193 35.0986 9.03857 36.3589 9.03857C37.1088 9.03857 37.7629 9.11834 38.3373 9.26193C38.9116 9.40552 39.6136 9.66078 39.9965 9.85223V9.91605L38.6404 11.2722C38.5766 11.2562 38.5287 11.2402 38.4649 11.2243C37.9065 11.0807 37.2843 11.0009 36.6461 11.0009C36.2313 11.0009 35.8963 11.0328 35.641 11.1126C35.4017 11.1764 35.2262 11.2722 35.1305 11.3998C35.0188 11.5274 34.9709 11.671 34.9709 11.8465V11.8944C34.9709 12.0858 35.0347 12.2613 35.1305 12.4049C35.2421 12.5485 35.4496 12.6761 35.7686 12.7878C36.0718 12.8995 36.5025 13.0271 37.045 13.1547C37.8586 13.3302 38.4968 13.5217 38.9914 13.745C39.47 13.9684 39.8369 14.2715 40.0603 14.6225C40.2837 14.9735 40.3953 15.4362 40.3953 16.0105Z" fill="#1F1F1F"/>
<path d="M47.4468 16.776C47.1277 16.8557 46.7927 16.8876 46.4417 16.8876C45.8514 16.8876 45.4206 16.76 45.1813 16.5207C44.942 16.2814 44.8303 15.8985 44.8303 15.372V10.1709H42.3574V15.7389C42.3574 16.4569 42.4691 17.0631 42.6765 17.5577C42.8839 18.0523 43.2349 18.4192 43.7135 18.6586C44.1921 18.8979 44.8463 19.0255 45.6599 19.0255C46.1386 19.0255 46.5853 18.9776 47.0001 18.8979C47.4308 18.8181 47.8297 18.6745 48.1488 18.515V16.4569C47.8935 16.5845 47.7659 16.6962 47.4468 16.776ZM42.1819 9.67637L41.4799 10.3784L40.5067 11.3516L40.2036 11.6547H42.3415H44.8144H48.0211V9.69232H42.1819V9.67637ZM42.3734 9.46897V9.66042V9.85186H44.7505V7.0918L42.3734 9.46897Z" fill="#1F1F1F"/>
<path fill-rule="evenodd" clip-rule="evenodd" d="M49.6646 14.3351H49.7124C49.7284 14.3032 49.7603 14.2873 49.7762 14.2554C49.7443 14.2713 49.7124 14.3032 49.6646 14.3351Z" fill="#1F1F1F"/>
<path fill-rule="evenodd" clip-rule="evenodd" d="M57.4819 11.3519C57.3383 10.8733 57.099 10.4585 56.7799 10.1075C56.4608 9.75651 56.03 9.50124 55.4876 9.32575C54.9452 9.1343 54.291 9.03857 53.5093 9.03857C52.9828 9.03857 52.4882 9.08643 52.0415 9.16621C51.5948 9.24598 50.8449 9.46933 50.478 9.61292C49.9196 9.82033 49.6484 9.932 49.6484 9.932V11.7667C49.8239 11.687 49.9834 11.6072 50.1749 11.5115C50.3025 11.4477 50.4461 11.3838 50.5897 11.3041C50.7173 11.2402 50.8449 11.1924 50.9726 11.1286C51.0204 11.1126 51.0842 11.0807 51.1321 11.0648C51.1959 11.0488 51.2597 11.0169 51.3236 10.985C51.8979 10.7776 52.6158 10.7616 53.3338 10.7616C53.7965 10.7616 54.1634 10.7935 54.4346 10.8733C54.7058 10.9371 54.8813 11.0328 55.009 11.1605C55.1206 11.2881 55.1845 11.4476 55.1845 11.6231V11.671C55.1845 11.7029 55.1845 11.7189 55.1845 11.7508C55.1845 11.7667 55.1845 11.7667 55.1845 11.7827C55.1845 11.8146 55.1845 11.8305 55.1685 11.8625C55.1685 11.8944 55.1526 11.9263 55.1366 11.9582C55.1206 11.9901 55.1206 12.022 55.1047 12.038C55.0728 12.1018 55.0409 12.1496 55.009 12.1975C54.8973 12.3251 54.7377 12.4209 54.4984 12.5325C54.4984 12.5325 54.4984 12.5485 54.4825 12.5485H54.4665C54.4187 12.5644 54.3708 12.5804 54.3229 12.6123C53.9879 12.724 53.5093 12.8516 52.903 12.9792C52.0096 13.1547 51.3076 13.3621 50.7652 13.6015C50.3504 13.777 50.0313 14.0003 49.792 14.2556C49.776 14.2875 49.7441 14.3034 49.7281 14.3354C49.7122 14.3673 49.6803 14.3832 49.6643 14.4151V14.3992C49.3612 14.814 49.2017 15.3724 49.2017 16.0424V16.3137C49.2017 17.1911 49.441 17.8612 49.9356 18.3398C50.4301 18.8185 51.164 19.0578 52.1053 19.0578C52.7754 19.0578 53.3338 18.9621 53.7326 18.7706C54.1474 18.5632 54.4665 18.3079 54.6899 17.9729C54.9292 17.6379 55.0887 17.255 55.2004 16.8561H55.2961L55.2164 18.8504H57.6733V12.9473C57.6893 12.3411 57.6254 11.8146 57.4819 11.3519ZM55.2483 15.7234C55.1685 15.9627 55.0249 16.1701 54.8654 16.3615C54.6739 16.5849 54.4187 16.7604 54.1155 16.888C53.8124 17.0316 53.4455 17.0954 53.0147 17.0954C52.5361 17.0954 52.1851 16.9997 51.9458 16.8082C51.7224 16.6008 51.6107 16.3296 51.6107 15.9786V15.8829C51.6107 15.516 51.7224 15.2447 51.9458 15.0533C52.1053 14.9257 52.3287 14.8299 52.6158 14.7502C52.7116 14.7182 52.8233 14.7023 52.9509 14.6863C52.9668 14.6863 52.9668 14.6863 52.9828 14.6863C53.5571 14.5587 54.0039 14.447 54.3389 14.3354C54.3548 14.3354 54.3868 14.3194 54.4027 14.3194C54.7377 14.1918 54.9771 14.0641 55.1047 13.9205C55.1685 13.8408 55.2323 13.745 55.2483 13.6334V15.7234Z" fill="#1F1F1F"/>
<path fill-rule="evenodd" clip-rule="evenodd" d="M52.9508 14.686C52.8391 14.702 52.7274 14.7339 52.6157 14.7499C52.7274 14.7179 52.8391 14.702 52.9508 14.686Z" fill="#1F1F1F"/>
<path d="M42.1182 9.74046L42.3894 9.46924L42.4692 9.75641L42.1182 9.74046Z" fill="#1F1F1F"/>
<path d="M101.483 18.7706L104.435 13.3302V14.0322L101.547 8.99072H104.307L106.238 12.5964H106.413L108.328 8.99072H111.072L108.2 14.0322V13.3302L111.152 18.7706H108.392L106.413 14.9576H106.238L104.243 18.7706H101.483Z" fill="#1F1F1F"/>
<path d="M63.3848 19.0736C61.917 19.0736 60.8162 18.6907 60.0982 17.9089C59.3962 17.1272 59.0293 16.0423 59.0293 14.6224V13.4577C59.0293 12.0537 59.3803 10.9689 60.0982 10.1871C60.8162 9.42132 61.901 9.02246 63.3688 9.02246C63.7517 9.02246 64.1027 9.05437 64.4378 9.11819C64.7728 9.182 65.0759 9.26177 65.3471 9.3575C65.6343 9.46918 66.081 9.70849 66.2884 9.83612V11.7825C65.9694 11.5751 65.6184 11.4156 65.2195 11.272C64.8366 11.1284 64.3739 11.0646 63.8634 11.0646C63.0657 11.0646 62.4594 11.272 62.0925 11.6868C61.7255 12.1016 61.5341 12.6919 61.5341 13.4737V14.5107C61.5341 15.2924 61.7255 15.8827 62.1084 16.3135C62.4913 16.7283 63.0976 16.9517 63.8953 16.9517C64.4058 16.9517 64.8685 16.8879 65.2514 16.7602C65.6503 16.6166 66.0172 16.4571 66.3682 16.2656V18.2759C66.0491 18.4514 65.4429 18.7226 64.9642 18.8502C64.5175 18.9938 63.9751 19.0736 63.3848 19.0736Z" fill="#1F1F1F"/>
<path d="M71.8565 19.0895C70.3728 19.0895 69.256 18.7066 68.4902 17.9568C67.7244 17.191 67.3574 16.1221 67.3574 14.7181V13.4258C67.3574 12.0218 67.7403 10.937 68.4902 10.1712C69.256 9.40536 70.3728 9.02246 71.8565 9.02246C73.3243 9.02246 74.4411 9.40536 75.2069 10.1712C75.9727 10.937 76.3396 12.0218 76.3396 13.4258V14.7181C76.3396 16.1221 75.9567 17.2069 75.2069 17.9568C74.457 18.7066 73.3402 19.0895 71.8565 19.0895ZM71.8565 17.0953C72.5106 17.0953 73.0052 16.9038 73.3402 16.505C73.6912 16.1221 73.8508 15.5637 73.8508 14.8298V13.2822C73.8508 12.5483 73.6753 11.974 73.3402 11.5911C73.0052 11.1922 72.5106 11.0008 71.8565 11.0008C71.2024 11.0008 70.7078 11.1922 70.3568 11.5911C70.0218 11.974 69.8463 12.5483 69.8463 13.2822V14.8298C69.8463 15.5637 70.0218 16.1221 70.3568 16.505C70.6918 16.9038 71.2024 17.0953 71.8565 17.0953Z" fill="#1F1F1F"/>
<path d="M78.031 8.24074C78.2544 8.44814 78.5894 8.55982 79.0521 8.55982C79.4988 8.55982 79.8498 8.44814 80.0731 8.24074C80.2965 8.03333 80.4082 7.7302 80.4082 7.33135V7.28349C80.4082 6.90059 80.2965 6.59746 80.0731 6.3741C79.8498 6.15074 79.5147 6.03906 79.0521 6.03906C78.5894 6.03906 78.2544 6.15074 78.031 6.3741C77.8236 6.59746 77.7119 6.90059 77.7119 7.28349V7.33135C77.7119 7.71425 77.8236 8.01738 78.031 8.24074Z" fill="#1F1F1F"/>
<path d="M77.8076 18.8344V9.27783H80.2965V18.8344H77.8076Z" fill="#1F1F1F"/>
<path d="M88.4487 18.8344V13.0909C88.4487 12.6921 88.4008 12.3411 88.2891 12.0539C88.1775 11.7667 88.002 11.5274 87.7627 11.3679C87.5233 11.2083 87.1723 11.1286 86.7575 11.1286C86.3746 11.1286 86.0556 11.1924 85.7684 11.336C85.4812 11.4795 85.2578 11.655 85.0824 11.8944C84.9069 12.1177 84.7792 12.3889 84.6835 12.6761L84.3006 11.32H84.7633C84.8749 10.9052 85.0345 10.5223 85.2738 10.1873C85.5131 9.85223 85.8482 9.58101 86.263 9.38956C86.6778 9.18215 87.2043 9.08643 87.8424 9.08643C88.5763 9.08643 89.1666 9.23001 89.6293 9.50123C90.076 9.77246 90.411 10.1873 90.6344 10.7297C90.8578 11.2721 90.9694 11.9582 90.9694 12.7559V18.8504H88.4487V18.8344ZM82.2266 18.8344V9.27788H84.7154L84.6197 11.6072L84.7154 11.8146V18.8344H82.2266Z" fill="#1F1F1F"/>
<path d="M97.0322 19.0575C95.3889 19.0575 94.1764 18.6746 93.3787 17.9247C92.581 17.1749 92.1821 16.074 92.1821 14.6541V13.4097C92.1821 11.9898 92.5491 10.9049 93.2989 10.1391C94.0488 9.37329 95.1336 9.00635 96.5536 9.00635C97.5108 9.00635 98.3085 9.18185 98.9626 9.51688C99.6168 9.85192 100.079 10.3305 100.399 10.9528C100.718 11.575 100.893 12.3089 100.893 13.1704V13.5054C100.893 13.7447 100.877 13.984 100.861 14.2234C100.845 14.4627 100.813 14.686 100.781 14.9094H98.5159C98.5319 14.5584 98.5478 14.2074 98.5478 13.9043C98.5478 13.5852 98.5638 13.2821 98.5638 13.0268C98.5638 12.5801 98.5 12.1972 98.3564 11.894C98.2128 11.575 97.9894 11.3357 97.7023 11.1761C97.4151 11.0166 97.0322 10.9368 96.5855 10.9368C95.9154 10.9368 95.4208 11.1282 95.1017 11.4952C94.7827 11.8621 94.6231 12.3886 94.6231 13.0747V13.9681L94.6391 14.2553V15.0051C94.6391 15.3082 94.6869 15.5795 94.7827 15.8347C94.8784 16.09 95.0379 16.3133 95.2613 16.5048C95.4846 16.6803 95.7718 16.8239 96.1388 16.9356C96.5057 17.0472 96.9684 17.0951 97.5268 17.0951C98.1171 17.0951 98.6914 17.0313 99.2339 16.9036C99.7763 16.7601 100.303 16.5846 100.781 16.3612V18.1481C100.351 18.3874 99.6168 18.7703 99.0265 18.8979C98.4042 18.9936 97.7501 19.0575 97.0322 19.0575ZM93.5063 14.9253V13.2661H100.255V14.9253H93.5063Z" fill="#1F1F1F"/>
<path fill-rule="evenodd" clip-rule="evenodd" d="M49.7923 14.2554C49.7764 14.2873 49.7445 14.3032 49.7285 14.3351H49.6807C49.7126 14.3032 49.7445 14.2713 49.7923 14.2554Z" fill="#1F1F1F"/>
<path fill-rule="evenodd" clip-rule="evenodd" d="M7.32489 18.7237L1.18073 12.5522C-0.0606718 10.9514 -1.09818 7.44472 2.29683 4.0945C7.61849 -1.15694 16.3243 -1.45432 22.1008 4.19125C21.0574 3.29093 18.7402 1.87255 17.3498 1.42156C12.6849 -0.0915605 8.88158 0.6487 6.93489 2.24483C4.74816 4.03779 4.80427 5.94596 5.26082 6.63153L7.40563 9.00869C7.40302 9.01118 7.40042 9.01368 7.39781 9.01618L9.85571 11.3735C10.675 12.2286 11.8943 14.3409 10.2172 15.9495L7.32489 18.7237ZM14.9913 7.36324C15.5919 7.59077 16.1335 7.876 16.5949 8.17466C16.1404 7.87487 15.5977 7.58941 14.9913 7.36324Z" fill="#05F3F3"/>
<path d="M5.32271 6.70797L7.56004 9.18613C11.7196 5.20626 16.6582 7.04913 18.27 8.66022L23.1688 3.86057C22.1608 2.93519 19.5985 1.34868 18.0875 0.858876C13.2309 -0.715463 9.27117 0.0547493 7.24446 1.71547C4.96784 3.58097 4.58221 5.6891 5.32271 6.70797Z" fill="url(#paint0_linear_1_1955)"/>
<path fill-rule="evenodd" clip-rule="evenodd" d="M18.2503 9.27635L24.3945 15.4478C25.6359 17.0486 26.6734 20.5553 23.2784 23.9055C17.956 29.1577 9.24857 29.4544 3.47205 23.8064C4.51421 24.7066 6.83407 26.127 8.22559 26.5783C12.8904 28.0915 16.6938 27.3512 18.6405 25.7551C20.8272 23.9621 20.7711 22.0539 20.3146 21.3684L18.1697 18.9912C18.1723 18.9887 18.1748 18.9863 18.1774 18.9838L15.7195 16.6265C14.9002 15.7714 13.6809 13.6591 15.358 12.0505L18.2503 9.27635ZM10.5541 20.6254C9.97358 20.4029 9.4489 20.1269 8.99937 19.8376C9.44249 20.128 9.96814 20.4042 10.5541 20.6254Z" fill="#FF327C"/>
<path d="M20.2312 21.2499L17.9951 18.7845C13.8356 22.7644 8.91741 20.9509 7.30561 19.3398L2.40688 24.1394C3.41483 25.0648 5.97717 26.6513 7.48816 27.1411C12.3448 28.7155 16.3045 27.9453 18.3312 26.2845C20.6078 24.419 20.9717 22.2687 20.2312 21.2499Z" fill="url(#paint1_linear_1_1955)"/>
<defs>
<linearGradient id="paint0_linear_1_1955" x1="4.96459" y1="6.13481" x2="18.347" y2="8.61419" gradientUnits="userSpaceOnUse">
<stop stop-color="#0A86FA"/>
<stop offset="0.541667" stop-color="#07C1F6"/>
<stop offset="1" stop-color="#05F280"/>
</linearGradient>
<linearGradient id="paint1_linear_1_1955" x1="19.2189" y1="23.2358" x2="5.69745" y2="21.0549" gradientUnits="userSpaceOnUse">
<stop stop-color="#730CA4"/>
<stop offset="0.458333" stop-color="#B823A5"/>
<stop offset="1" stop-color="#FF974B"/>
</linearGradient>
</defs>
</svg>
