<svg width="26" height="35" viewBox="0 0 26 35" fill="none" xmlns="http://www.w3.org/2000/svg">
<path d="M19.5262 24.3398C20.4053 23.8086 20.6759 22.3477 21.4198 21.5508C22.2313 20.8203 23.7192 20.6211 24.2602 19.6914C24.8012 18.7617 24.2602 17.3672 24.5307 16.3047C24.8012 15.3086 25.9509 14.3789 25.9509 13.25C25.9509 12.1875 24.7336 11.2578 24.4631 10.2617C24.1926 9.19922 24.7336 7.80469 24.1926 6.875C23.6515 5.94531 22.1637 5.74609 21.4198 5.01562C20.6082 4.21875 20.4053 2.75781 19.4585 2.22656C18.5117 1.69531 17.0915 2.22656 16.0095 1.96094C15.0627 1.69531 14.1159 0.5 13.0338 0.5C11.8841 0.5 10.9373 1.69531 9.92289 1.96094C8.84083 2.22656 7.42063 1.69531 6.47383 2.22656C5.59465 2.75781 5.32414 4.21875 4.58022 5.01562C3.76868 5.74609 2.28084 5.94531 1.73981 6.875C1.19878 7.80469 1.73981 9.19922 1.4693 10.2617C1.19878 11.2578 0.049096 12.1875 0.049096 13.25C0.049096 14.3789 1.19878 15.3086 1.4693 16.3047C1.73981 17.3672 1.19878 18.7617 1.73981 19.6914C2.28084 20.5547 3.76868 20.8203 4.58022 21.5508C5.32414 22.3477 5.52702 23.8086 6.47383 24.3398C7.42063 24.8711 8.84083 24.3398 9.92289 24.6055C10.9373 24.8711 11.8841 26 13.0338 26C14.1159 26 15.0627 24.8711 16.0771 24.6055C17.1592 24.3398 18.5794 24.8711 19.5262 24.3398ZM12.9662 23.875C12.4252 23.6094 11.546 22.8789 10.3963 22.5469C9.2466 22.2812 8.16455 22.4805 7.55589 22.4141C7.21774 21.9492 6.81197 20.8867 6.00043 20.0898C5.18888 19.293 4.10682 18.8945 3.63342 18.5625C3.63342 17.9648 3.83631 16.9023 3.56579 15.7734C3.22765 14.6445 2.48373 13.8477 2.21322 13.3164C2.48373 12.7188 3.22765 11.9219 3.56579 10.793C3.83631 9.66406 3.63342 8.60156 3.63342 8.00391C4.17445 7.67188 5.25651 7.27344 6.06805 6.47656C6.8796 5.67969 7.28537 4.61719 7.62352 4.08594C8.23217 4.08594 9.31423 4.28516 10.4639 4.01953C11.6136 3.6875 12.4252 2.95703 12.9662 2.69141C13.5748 2.95703 14.3864 3.6875 15.5361 4.01953C16.6858 4.28516 17.7678 4.08594 18.3765 4.08594C18.7146 4.61719 19.1204 5.67969 19.9319 6.47656C20.7435 7.27344 21.8256 7.67188 22.3666 8.00391C22.3666 8.60156 22.1637 9.66406 22.4342 10.793C22.7724 11.9219 23.5163 12.7188 23.7868 13.3164C23.5163 13.8477 22.7724 14.6445 22.4342 15.7734C22.1637 16.8359 22.3666 17.8984 22.3666 18.5625C21.8256 18.8945 20.7435 19.293 19.9319 20.0898C19.1204 20.8867 18.7146 21.9492 18.3765 22.4805C17.7678 22.4805 16.6858 22.2812 15.5361 22.5469C14.3864 22.8789 13.5748 23.6094 12.9662 23.875ZM18.9175 13.25C18.9175 10.0625 16.2124 7.40625 13.0338 7.40625C9.78763 7.40625 7.08249 10.0625 7.08249 13.25C7.08249 16.5039 9.72001 19.0938 12.9662 19.0938C16.1447 19.0938 18.9175 16.5039 18.9175 13.25ZM13.0338 16.9688C10.9373 16.9688 9.2466 15.3086 9.2466 13.25C9.2466 11.2578 10.9373 9.53125 12.9662 9.53125C14.995 9.53125 16.7534 11.2578 16.7534 13.25C16.7534 15.3086 15.0627 16.9688 13.0338 16.9688ZM24.1926 25.1367C23.9897 24.5391 23.3134 24.2734 22.7724 24.5391C22.2313 24.7383 21.9608 25.3359 22.1637 25.8672L23.7868 29.9844L20.6082 29.5195L18.9175 32.3086L17.2268 28.2578C17.0239 27.7266 16.4153 27.4609 15.8066 27.6602C15.2656 27.9258 14.995 28.5234 15.2656 29.0547L16.9563 33.1055C17.2944 33.9688 18.0383 34.5 19.0528 34.5C19.9319 34.5 20.6759 34.0352 21.0816 33.3047L21.7579 31.9102L23.2458 32.2422C24.0573 32.375 24.9365 32.1094 25.4775 31.4453C26.0185 30.8477 26.1538 29.918 25.8156 29.1875L24.1926 25.1367ZM10.1934 27.6602C9.58475 27.4609 8.97609 27.7266 8.7732 28.2578L7.08249 32.3086L5.39177 29.5195L2.21322 29.9844L3.83631 25.8672C4.03919 25.3359 3.76868 24.7383 3.22765 24.5391C2.68662 24.2734 2.01033 24.5391 1.80744 25.1367L0.184353 29.1875C-0.15379 29.918 -0.0185328 30.8477 0.522497 31.4453C1.06353 32.1094 1.9427 32.375 2.75425 32.2422L4.24208 31.9102L4.91837 33.3047C5.32414 34.0352 6.06805 34.5 7.01486 34.5C7.96166 34.5 8.70557 33.9688 9.04372 33.1055L10.7344 29.0547C11.005 28.5234 10.7344 27.9258 10.1934 27.6602Z" fill="#254476"/>
</svg>
